<svg aria-hidden="true" style="position: absolute; width: 0; height: 0; overflow: hidden;" version="1.1" xmlns="http://www.w3.org/2000/svg" xmlns:xlink="http://www.w3.org/1999/xlink">
<defs>
<symbol id="menu_icon" viewBox="0 0 8 32">
<title>menu_icon</title>
<path d="M3.765 12.009c-2.095 0.072-3.766 1.788-3.766 3.894 0 0.034 0 0.068 0.001 0.101l-0-0.005c-0.001 0.034-0.002 0.075-0.002 0.115 0 2.106 1.671 3.822 3.76 3.894l0.007 0c2.095-0.072 3.766-1.788 3.766-3.894 0-0.040-0.001-0.081-0.002-0.121l0 0.006c0.001-0.029 0.001-0.062 0.001-0.096 0-2.106-1.671-3.822-3.759-3.894l-0.007-0zM3.765 24.019c-2.041 0.204-3.621 1.913-3.621 3.991s1.58 3.786 3.605 3.989l0.017 0.001c2.093-0.148 3.735-1.882 3.735-4s-1.642-3.852-3.722-3.999l-0.013-0.001zM3.765 8.019c2.095-0.072 3.766-1.788 3.766-3.894 0-0.040-0.001-0.081-0.002-0.121l0 0.006c0.001-0.034 0.002-0.075 0.002-0.115 0-2.106-1.671-3.822-3.76-3.894l-0.007-0c-2.095 0.072-3.766 1.788-3.766 3.894 0 0.040 0.001 0.081 0.002 0.121l-0-0.006c-0.001 0.029-0.001 0.062-0.001 0.096 0 2.106 1.671 3.822 3.759 3.894l0.007 0z"></path>
</symbol>
<symbol id="drop_icon" viewBox="0 0 51 32">
<title>drop_icon</title>
<path d="M51.2 6.048l-5.984-6.048-19.616 19.904-19.616-19.904-5.984 6.048 25.6 25.952z"></path>
</symbol>
</defs>
</svg>
