<svg aria-hidden="true" style="position: absolute; width: 0; height: 0; overflow: hidden;" version="1.1" xmlns="http://www.w3.org/2000/svg" xmlns:xlink="http://www.w3.org/1999/xlink">
<defs>
<symbol id="info_icon" viewBox="0 0 32 32">
<title>day_info_icon</title>
<path d="M18.436 10.542l2.898 2.916-7.342 7.36-2.898-2.898zM22.827 10.542l-1.298-1.298c-0.23-0.222-0.543-0.359-0.889-0.359s-0.659 0.137-0.889 0.359l0-0-1.244 1.244 2.827 2.916 1.44-1.458c0.185-0.181 0.299-0.433 0.299-0.712 0-0.261-0.1-0.498-0.264-0.676l0.001 0.001zM8.889 22.72c-0.003 0.018-0.005 0.038-0.005 0.058 0 0.187 0.151 0.338 0.338 0.338 0.021 0 0.041-0.002 0.060-0.005l-0.002 0 3.164-0.782-2.844-2.916z"></path>
<path d="M16 1.778c7.855 0 14.222 6.367 14.222 14.222s-6.367 14.222-14.222 14.222c-7.855 0-14.222-6.367-14.222-14.222v0c0-7.855 6.367-14.222 14.222-14.222v0zM16 0c-8.837 0-16 7.163-16 16s7.163 16 16 16c8.837 0 16-7.163 16-16v0c0-8.837-7.163-16-16-16v0z"></path>
</symbol>
<symbol id="icon-add" viewBox="0 0 32 32">
<title>add_icon</title>
<path d="M16 1.778c7.855 0 14.222 6.367 14.222 14.222s-6.367 14.222-14.222 14.222c-7.855 0-14.222-6.367-14.222-14.222v0c0-7.855 6.367-14.222 14.222-14.222v0zM16 0c-8.837 0-16 7.163-16 16s7.163 16 16 16c8.837 0 16-7.163 16-16v0c0-8.837-7.163-16-16-16v0z"></path>
<path d="M8.729 14.542h5.813v-5.813h2.916v5.813h5.813v2.916h-5.813v5.813h-2.916v-5.813h-5.813z"></path>
</symbol>
</defs>
</svg>
