<svg style="position:absolute;width:0;height:0" xmlns="http://www.w3.org/2000/svg" overflow="hidden"><defs><symbol id="info_icon" viewBox="0 0 32 32"><title>day_info_icon</title><path d="M18.436 10.542l2.898 2.916-7.342 7.36-2.898-2.898zm4.391 0l-1.298-1.298c-.23-.222-.543-.359-.889-.359s-.659.137-.889.359l-1.244 1.244 2.827 2.916 1.44-1.458a.994.994 0 0 0 .035-1.388l.001.001zM8.889 22.72a.338.338 0 0 0 .393.391H9.28l3.164-.782L9.6 19.413z"/><path d="M16 1.778c7.855 0 14.222 6.367 14.222 14.222S23.855 30.222 16 30.222C8.145 30.222 1.778 23.855 1.778 16 1.778 8.145 8.145 1.778 16 1.778zM16 0C7.163 0 0 7.163 0 16s7.163 16 16 16 16-7.163 16-16S24.837 0 16 0z"/></symbol><symbol id="icon-add" viewBox="0 0 32 32"><title>add_icon</title><path d="M16 1.778c7.855 0 14.222 6.367 14.222 14.222S23.855 30.222 16 30.222C8.145 30.222 1.778 23.855 1.778 16 1.778 8.145 8.145 1.778 16 1.778zM16 0C7.163 0 0 7.163 0 16s7.163 16 16 16 16-7.163 16-16S24.837 0 16 0z"/><path d="M8.729 14.542h5.813V8.729h2.916v5.813h5.813v2.916h-5.813v5.813h-2.916v-5.813H8.729z"/></symbol></defs></svg>