<svg aria-hidden="true" version="1.1" xmlns="http://www.w3.org/2000/svg" xmlns:xlink="http://www.w3.org/1999/xlink">
<defs>
<symbol id="sol_logo" viewBox="0 0 27 32">
<path d="M12.885 0.229l-12.824 23.508c-0.286 0.524 0.514 0.992 0.801 0.468l12.824-23.509c0.286-0.524-0.514-0.992-0.801-0.468z"></path>
<path d="M20.087 13.897l5.624 10.308c0.286 0.524 1.087 0.057 0.801-0.468l-5.624-10.308c-0.286-0.524-1.087-0.057-0.801 0.468z"></path>
<path d="M12.885 0.697l4.958 9.084c0.286 0.524 1.087 0.057 0.801-0.468l-4.958-9.084c-0.286-0.524-1.087-0.057-0.801 0.468z"></path>
<path d="M0.461 24.463l25.65-0.029c0.597 0 0.598-0.928 0-0.927l-25.65 0.029c-0.597 0-0.598 0.928 0 0.927z"></path>
<path d="M12.912 4.937l-9.020 16.528c-0.286 0.524 0.514 0.992 0.801 0.468l9.020-16.527c0.286-0.524-0.514-0.992-0.801-0.468z"></path>
<path d="M12.912 5.406l9.020 16.527c0.286 0.524 1.087 0.057 0.801-0.468l-9.022-16.527c-0.286-0.524-1.087-0.057-0.801 0.468z"></path>
<path d="M4.295 22.184l18.034-0.020c0.597 0 0.598-0.928 0-0.927l-18.034 0.020c-0.597 0-0.598 0.928 0 0.927z"></path>
<path d="M12.887 9.781l-5.174 9.485c-0.286 0.524 0.514 0.992 0.801 0.468l5.174-9.485c0.286-0.524-0.514-0.992-0.801-0.468z"></path>
<path d="M12.887 10.25l5.171 9.484c0.286 0.524 1.087 0.057 0.801-0.468l-5.172-9.485c-0.286-0.524-1.087-0.057-0.801 0.468z"></path>
<path d="M14.139 12.027q-1.973 3.615-3.944 7.231c-0.286 0.524 0.514 0.992 0.801 0.468q1.973-3.615 3.944-7.232c0.286-0.524-0.514-0.992-0.801-0.468z"></path>
<path d="M12.824 14.906l2.629 4.824c0.286 0.524 1.087 0.057 0.801-0.468l-2.628-4.823c-0.286-0.524-1.087-0.057-0.801 0.468z"></path>
<path d="M10.595 19.956c1.756 0 3.506 0 5.259 0 0.596 0 0.598-0.929 0-0.927-1.756 0-3.506 0-5.259 0-0.596 0-0.598 0.929 0 0.927z"></path>
<path d="M4.273 28.792q0.406 0 0.6 0.199c0.12 0.126 0.195 0.298 0.195 0.486 0 0.010-0 0.020-0.001 0.030l0-0.001v0.043c0 0.015-0.002 0.030-0.004 0.044l0-0.001-0.585 0.103c0-0.001 0-0.001 0-0.002 0-0.084-0.022-0.162-0.061-0.23l0.001 0.002c-0.028-0.054-0.084-0.091-0.148-0.091h-0c-0.003-0-0.006-0-0.009-0-0.033 0-0.064 0.009-0.091 0.025l0.001-0c-0.024 0.016-0.044 0.036-0.059 0.059l-0 0.001c-0.014 0.022-0.025 0.048-0.031 0.076l-0 0.002c-0.005 0.022-0.009 0.047-0.009 0.073v1.585c0 0.044 0.011 0.086 0.032 0.122l-0.001-0.001q0.031 0.058 0.146 0.058c0.061-0 0.115-0.033 0.144-0.083l0-0.001c0.038-0.065 0.060-0.142 0.060-0.225 0-0.006-0-0.011-0-0.017l0 0.001 0.599 0.084c0 0.009 0.001 0.021 0.001 0.032 0 0.215-0.077 0.412-0.206 0.565l0.001-0.001q-0.201 0.226-0.58 0.226-0.418 0-0.611-0.196t-0.191-0.585v-1.562c-0.001-0.013-0.001-0.028-0.001-0.043 0-0.21 0.075-0.402 0.2-0.552l-0.001 0.001q0.198-0.222 0.609-0.222z"></path>
<path d="M10.97 31.166q0 0.401-0.201 0.594t-0.594 0.192q-0.79 0-0.79-0.785v-1.593q0-0.401 0.21-0.591c0.143-0.119 0.329-0.191 0.532-0.191 0.017 0 0.034 0 0.050 0.002l-0.002-0q0.406 0 0.6 0.19t0.194 0.591zM10.355 29.55c0.001-0.008 0.002-0.017 0.002-0.026 0-0.092-0.075-0.167-0.167-0.167-0.005 0-0.009 0-0.013 0.001l0.001-0c-0.002-0-0.004-0-0.005-0-0.047 0-0.091 0.017-0.124 0.045l0-0c-0.034 0.033-0.054 0.079-0.054 0.13 0 0.006 0 0.012 0.001 0.018l-0-0.001v1.642c-0.001 0.006-0.001 0.013-0.001 0.020 0 0.051 0.021 0.097 0.055 0.129l0 0c0.034 0.027 0.077 0.043 0.124 0.043 0.002 0 0.004-0 0.006-0h-0c0.002 0 0.004 0 0.006 0 0.046 0 0.088-0.016 0.121-0.043l-0 0c0.032-0.033 0.052-0.079 0.052-0.129 0-0.007-0-0.014-0.001-0.022l0 0.001z"></path>
<path d="M17.060 28.819v3.106h-0.598v-2.526h-0.321v1.178c0 0.012 0 0.025 0 0.039 0 0.182-0.010 0.362-0.029 0.539l0.002-0.022c-0.014 0.147-0.051 0.283-0.108 0.408l0.003-0.008c-0.052 0.111-0.127 0.204-0.219 0.275l-0.002 0.001c-0.107 0.080-0.231 0.146-0.365 0.19l-0.009 0.003-0.206-0.46c0.088-0.045 0.163-0.101 0.227-0.167l0-0c0.051-0.055 0.091-0.12 0.117-0.193l0.001-0.004c0.026-0.076 0.042-0.164 0.044-0.255l0-0.001q0.007-0.147 0.007-0.348v-1.756z"></path>
<path d="M21.549 31.924v-3.105h0.605v1.142h0.156q0.455 0 0.651 0.251t0.196 0.721c0 0.009 0 0.020 0 0.031 0 0.15-0.024 0.295-0.067 0.431l0.003-0.010c-0.039 0.12-0.101 0.224-0.181 0.31l0-0c-0.074 0.077-0.166 0.137-0.269 0.174l-0.005 0.002c-0.099 0.035-0.214 0.056-0.334 0.056-0.003 0-0.005 0-0.008-0h0zM22.267 31.344c0.003 0 0.007 0 0.011 0 0.084 0 0.159-0.038 0.21-0.098l0-0c0.053-0.076 0.085-0.171 0.085-0.273 0-0.014-0.001-0.027-0.002-0.041l0 0.002c0-0.007 0-0.014 0-0.022 0-0.067-0.010-0.133-0.028-0.194l0.001 0.005c-0.014-0.046-0.039-0.086-0.071-0.118l-0-0c-0.027-0.025-0.061-0.043-0.099-0.051l-0.001-0c-0.034-0.007-0.073-0.011-0.112-0.011-0 0-0.001 0-0.002 0h-0.105v0.803z"></path>
</symbol>

<symbol id="exit_icon" viewBox="0 0 32 32">
<path d="M20.2 28.12h-16.44v-24.24h16.44c0.367-0.011 0.66-0.311 0.66-0.68 0-0 0-0 0-0v0-2.52c0-0 0-0 0-0 0-0.369-0.293-0.669-0.659-0.68l-0.001-0h-19.54c-0.367 0.011-0.66 0.311-0.66 0.68 0 0 0 0 0 0v-0 30.64c0 0 0 0 0 0 0 0.369 0.293 0.669 0.659 0.68l0.001 0h19.54c0.367-0.011 0.66-0.311 0.66-0.68 0-0 0-0 0-0v0-2.52c0-0 0-0 0-0 0-0.369-0.293-0.669-0.659-0.68l-0.001-0zM31.82 15.52l-8.88-9.2c-0.12-0.121-0.286-0.197-0.47-0.197s-0.35 0.075-0.47 0.197l-0 0-2.12 2.18c-0.118 0.125-0.191 0.294-0.191 0.48s0.073 0.355 0.191 0.48l-0-0 4 4.16h-17.36c-0.367 0.011-0.66 0.311-0.66 0.68 0 0 0 0 0 0v-0 3.4c0 0 0 0 0 0 0 0.369 0.293 0.669 0.659 0.68l0.001 0h17.38l-4 4.16c-0.118 0.125-0.191 0.294-0.191 0.48s0.073 0.355 0.191 0.48l-0-0 2.1 2.18c0.117 0.127 0.284 0.206 0.47 0.206s0.353-0.079 0.47-0.205l0-0 8.88-9.2c0.118-0.125 0.191-0.294 0.191-0.48s-0.073-0.355-0.191-0.48l0 0z"></path>
</symbol>
</defs>
</svg>
