<svg xmlns="http://www.w3.org/2000/svg"><defs><symbol id="sol_logo" viewBox="0 0 27 32"><path d="M12.885.229L.061 23.737c-.286.524.514.992.801.468L13.686.696c.286-.524-.514-.992-.801-.468zm7.202 13.668l5.624 10.308c.286.524 1.087.057.801-.468l-5.624-10.308c-.286-.524-1.087-.057-.801.468z"/><path d="M12.885.697l4.958 9.084c.286.524 1.087.057.801-.468L13.686.229c-.286-.524-1.087-.057-.801.468zM.461 24.463l25.65-.029c.597 0 .598-.928 0-.927l-25.65.029c-.597 0-.598.928 0 .927zM12.912 4.937l-9.02 16.528c-.286.524.514.992.801.468l9.02-16.527c.286-.524-.514-.992-.801-.468z"/><path d="M12.912 5.406l9.02 16.527c.286.524 1.087.057.801-.468L13.711 4.938c-.286-.524-1.087-.057-.801.468z"/><path d="M4.295 22.184l18.034-.02c.597 0 .598-.928 0-.927l-18.034.02c-.597 0-.598.928 0 .927zm8.592-12.403l-5.174 9.485c-.286.524.514.992.801.468l5.174-9.485c.286-.524-.514-.992-.801-.468z"/><path d="M12.887 10.25l5.171 9.484c.286.524 1.087.057.801-.468l-5.172-9.485c-.286-.524-1.087-.057-.801.468z"/><path d="M14.139 12.027q-1.973 3.615-3.944 7.231c-.286.524.514.992.801.468q1.973-3.615 3.944-7.232c.286-.524-.514-.992-.801-.468z"/><path d="M12.824 14.906l2.629 4.824c.286.524 1.087.057.801-.468l-2.628-4.823c-.286-.524-1.087-.057-.801.468z"/><path d="M10.595 19.956h5.259c.596 0 .598-.929 0-.927h-5.259c-.596 0-.598.929 0 .927zm-6.322 8.836q.406 0 .6.199c.12.126.195.298.195.486l-.001.03v-.001.043c0 .015-.002.03-.004.044v-.001l-.585.103v-.002a.46.46 0 0 0-.061-.23l.001.002a.167.167 0 0 0-.148-.091h-.009a.178.178 0 0 0-.091.025h.001a.207.207 0 0 0-.059.059v.001a.234.234 0 0 0-.031.076v.002a.331.331 0 0 0-.009.073v1.585c0 .044.011.086.032.122l-.001-.001q.031.058.146.058a.166.166 0 0 0 .144-.083v-.001a.445.445 0 0 0 .06-.225v-.017.001l.599.084.001.032a.873.873 0 0 1-.206.565l.001-.001q-.201.226-.58.226-.418 0-.611-.196t-.191-.585v-1.562l-.001-.043c0-.21.075-.402.2-.552l-.001.001q.198-.222.609-.222zm6.697 2.374q0 .401-.201.594t-.594.192q-.79 0-.79-.785v-1.593q0-.401.21-.591a.83.83 0 0 1 .582-.189h-.002q.406 0 .6.19t.194.591zm-.615-1.616a.167.167 0 0 0-.165-.193l-.013.001h.001-.005a.192.192 0 0 0-.124.045.18.18 0 0 0-.053.148v-.001 1.642l-.001.02c0 .051.021.097.055.129a.198.198 0 0 0 .124.043h.012a.19.19 0 0 0 .121-.043.186.186 0 0 0 .052-.129l-.001-.022v.001zm6.705-.731v3.106h-.598v-2.526h-.321v1.217c0 .182-.01.362-.029.539l.002-.022a1.266 1.266 0 0 1-.108.408l.003-.008a.743.743 0 0 1-.219.275l-.002.001a1.28 1.28 0 0 1-.365.19l-.009.003-.206-.46a.856.856 0 0 0 .227-.167.559.559 0 0 0 .117-.193l.001-.004a.856.856 0 0 0 .044-.255v-.001q.007-.147.007-.348v-1.756zm4.489 3.105v-3.105h.605v1.142h.156q.455 0 .651.251t.196.721v.031c0 .15-.024.295-.067.431l.003-.01a.827.827 0 0 1-.181.31.703.703 0 0 1-.269.174l-.005.002a1.012 1.012 0 0 1-.334.056h-.008zm.718-.58h.011a.275.275 0 0 0 .21-.098.478.478 0 0 0 .085-.273l-.002-.041v-.02a.69.69 0 0 0-.028-.194l.001.005a.283.283 0 0 0-.071-.118.209.209 0 0 0-.099-.051h-.001a.567.567 0 0 0-.112-.011h-.107v.803z"/></symbol><symbol id="exit_icon" viewBox="0 0 32 32"><path d="M20.2 28.12H3.76V3.88H20.2a.68.68 0 0 0 .66-.68V.68a.68.68 0 0 0-.659-.68H.66A.68.68 0 0 0 0 .68v30.64a.68.68 0 0 0 .659.68H20.2a.68.68 0 0 0 .66-.68V28.8a.68.68 0 0 0-.659-.68H20.2zm11.62-12.6l-8.88-9.2a.66.66 0 0 0-.94 0L19.88 8.5a.698.698 0 0 0 0 .96l4 4.16H6.52a.68.68 0 0 0-.66.68v3.4a.68.68 0 0 0 .659.68H23.9l-4 4.16a.698.698 0 0 0 0 .96l2.1 2.18a.64.64 0 0 0 .94.001l8.88-9.2a.698.698 0 0 0 0-.96z"/></symbol></defs></svg>